<svg width="148" height="128" viewBox="0 0 148 128" fill="none" xmlns="http://www.w3.org/2000/svg">
<g filter="url(#filter0_dii_1749_430)">
<ellipse cx="70.3562" cy="33.0833" rx="16.1771" ry="16.0833" fill="url(#paint0_linear_1749_430)"/>
</g>
<g opacity="0.7" filter="url(#filter1_dii_1749_430)">
<path d="M77.128 33.1229C77.0728 32.8134 77.044 32.4951 77.044 32.1702C77.044 29.1307 79.5645 26.6667 82.6737 26.6667C84.9852 26.6667 86.9712 28.0285 87.8383 29.9761C88.5407 29.3833 89.4521 29.0254 90.4481 29.0254C92.669 29.0254 94.4694 30.8049 94.4694 33.0001C94.4694 33.1223 94.4638 33.2433 94.4529 33.3627C95.5211 33.8742 96.2566 34.9474 96.2566 36.1886C96.2566 37.9254 94.8163 39.3334 93.0396 39.3334H77.8482C76.0715 39.3334 74.6312 37.9254 74.6312 36.1886C74.6312 34.6938 75.6981 33.4426 77.128 33.1229Z" fill="#ECECEC"/>
</g>
<g opacity="0.7" filter="url(#filter2_dii_1749_430)">
<path d="M53.6646 45.8324C53.6278 45.6247 53.6086 45.4111 53.6086 45.1931C53.6086 43.1535 55.2889 41.5 57.3618 41.5C58.9027 41.5 60.2268 42.4138 60.8048 43.7208C61.273 43.3229 61.8807 43.0828 62.5447 43.0828C64.0253 43.0828 65.2255 44.2769 65.2255 45.75C65.2255 45.832 65.2218 45.9132 65.2145 45.9933C65.9266 46.3366 66.417 47.0568 66.417 47.8897C66.417 49.0552 65.4568 50 64.2723 50H54.1448C52.9603 50 52.0001 49.0552 52.0001 47.8897C52.0001 46.8866 52.7113 46.0469 53.6646 45.8324Z" fill="#ECECEC"/>
</g>
<ellipse opacity="0.5" cx="1.00583" cy="1" rx="1.00583" ry="1" transform="matrix(-1 0 0 1 63.0643 24)" fill="#ECECEC"/>
<ellipse opacity="0.5" cx="0.502916" cy="0.5" rx="0.502916" ry="0.5" transform="matrix(-1 0 0 1 64.0701 22)" fill="#ECECEC"/>
<defs>
<filter id="filter0_dii_1749_430" x="25.3791" y="2.6" width="89.9542" height="89.7667" filterUnits="userSpaceOnUse" color-interpolation-filters="sRGB">
<feFlood flood-opacity="0" result="BackgroundImageFix"/>
<feColorMatrix in="SourceAlpha" type="matrix" values="0 0 0 0 0 0 0 0 0 0 0 0 0 0 0 0 0 0 127 0" result="hardAlpha"/>
<feOffset dy="14.4"/>
<feGaussianBlur stdDeviation="14.4"/>
<feColorMatrix type="matrix" values="0 0 0 0 0.199583 0 0 0 0 0.164253 0 0 0 0 0.0544687 0 0 0 0.24 0"/>
<feBlend mode="normal" in2="BackgroundImageFix" result="effect1_dropShadow_1749_430"/>
<feBlend mode="normal" in="SourceGraphic" in2="effect1_dropShadow_1749_430" result="shape"/>
<feColorMatrix in="SourceAlpha" type="matrix" values="0 0 0 0 0 0 0 0 0 0 0 0 0 0 0 0 0 0 127 0" result="hardAlpha"/>
<feOffset dy="4.48"/>
<feGaussianBlur stdDeviation="2.24"/>
<feComposite in2="hardAlpha" operator="arithmetic" k2="-1" k3="1"/>
<feColorMatrix type="matrix" values="0 0 0 0 1 0 0 0 0 0.870542 0 0 0 0 0.288684 0 0 0 1 0"/>
<feBlend mode="normal" in2="shape" result="effect2_innerShadow_1749_430"/>
<feColorMatrix in="SourceAlpha" type="matrix" values="0 0 0 0 0 0 0 0 0 0 0 0 0 0 0 0 0 0 127 0" result="hardAlpha"/>
<feOffset dy="-4.48"/>
<feGaussianBlur stdDeviation="2.24"/>
<feComposite in2="hardAlpha" operator="arithmetic" k2="-1" k3="1"/>
<feColorMatrix type="matrix" values="0 0 0 0 0.923073 0 0 0 0 0.759671 0 0 0 0 0.251918 0 0 0 1 0"/>
<feBlend mode="normal" in2="effect2_innerShadow_1749_430" result="effect3_innerShadow_1749_430"/>
</filter>
<filter id="filter1_dii_1749_430" x="23.0312" y="0.866749" width="124.825" height="115.867" filterUnits="userSpaceOnUse" color-interpolation-filters="sRGB">
<feFlood flood-opacity="0" result="BackgroundImageFix"/>
<feColorMatrix in="SourceAlpha" type="matrix" values="0 0 0 0 0 0 0 0 0 0 0 0 0 0 0 0 0 0 127 0" result="hardAlpha"/>
<feOffset dy="25.8"/>
<feGaussianBlur stdDeviation="25.8"/>
<feColorMatrix type="matrix" values="0 0 0 0 0.2 0 0 0 0 0.2 0 0 0 0 0.2 0 0 0 0.24 0"/>
<feBlend mode="normal" in2="BackgroundImageFix" result="effect1_dropShadow_1749_430"/>
<feBlend mode="normal" in="SourceGraphic" in2="effect1_dropShadow_1749_430" result="shape"/>
<feColorMatrix in="SourceAlpha" type="matrix" values="0 0 0 0 0 0 0 0 0 0 0 0 0 0 0 0 0 0 127 0" result="hardAlpha"/>
<feOffset dy="8.02667"/>
<feGaussianBlur stdDeviation="4.01333"/>
<feComposite in2="hardAlpha" operator="arithmetic" k2="-1" k3="1"/>
<feColorMatrix type="matrix" values="0 0 0 0 1 0 0 0 0 1 0 0 0 0 1 0 0 0 1 0"/>
<feBlend mode="normal" in2="shape" result="effect2_innerShadow_1749_430"/>
<feColorMatrix in="SourceAlpha" type="matrix" values="0 0 0 0 0 0 0 0 0 0 0 0 0 0 0 0 0 0 127 0" result="hardAlpha"/>
<feOffset dy="-8.02667"/>
<feGaussianBlur stdDeviation="4.01333"/>
<feComposite in2="hardAlpha" operator="arithmetic" k2="-1" k3="1"/>
<feColorMatrix type="matrix" values="0 0 0 0 0.925 0 0 0 0 0.925 0 0 0 0 0.925 0 0 0 1 0"/>
<feBlend mode="normal" in2="effect2_innerShadow_1749_430" result="effect3_innerShadow_1749_430"/>
</filter>
<filter id="filter2_dii_1749_430" x="0.400093" y="15.7" width="117.617" height="111.7" filterUnits="userSpaceOnUse" color-interpolation-filters="sRGB">
<feFlood flood-opacity="0" result="BackgroundImageFix"/>
<feColorMatrix in="SourceAlpha" type="matrix" values="0 0 0 0 0 0 0 0 0 0 0 0 0 0 0 0 0 0 127 0" result="hardAlpha"/>
<feOffset dy="25.8"/>
<feGaussianBlur stdDeviation="25.8"/>
<feColorMatrix type="matrix" values="0 0 0 0 0.2 0 0 0 0 0.2 0 0 0 0 0.2 0 0 0 0.24 0"/>
<feBlend mode="normal" in2="BackgroundImageFix" result="effect1_dropShadow_1749_430"/>
<feBlend mode="normal" in="SourceGraphic" in2="effect1_dropShadow_1749_430" result="shape"/>
<feColorMatrix in="SourceAlpha" type="matrix" values="0 0 0 0 0 0 0 0 0 0 0 0 0 0 0 0 0 0 127 0" result="hardAlpha"/>
<feOffset dy="8.02667"/>
<feGaussianBlur stdDeviation="4.01333"/>
<feComposite in2="hardAlpha" operator="arithmetic" k2="-1" k3="1"/>
<feColorMatrix type="matrix" values="0 0 0 0 1 0 0 0 0 1 0 0 0 0 1 0 0 0 1 0"/>
<feBlend mode="normal" in2="shape" result="effect2_innerShadow_1749_430"/>
<feColorMatrix in="SourceAlpha" type="matrix" values="0 0 0 0 0 0 0 0 0 0 0 0 0 0 0 0 0 0 127 0" result="hardAlpha"/>
<feOffset dy="-8.02667"/>
<feGaussianBlur stdDeviation="4.01333"/>
<feComposite in2="hardAlpha" operator="arithmetic" k2="-1" k3="1"/>
<feColorMatrix type="matrix" values="0 0 0 0 0.925 0 0 0 0 0.925 0 0 0 0 0.925 0 0 0 1 0"/>
<feBlend mode="normal" in2="effect2_innerShadow_1749_430" result="effect3_innerShadow_1749_430"/>
</filter>
<linearGradient id="paint0_linear_1749_430" x1="63.8854" y1="20.6187" x2="75.1048" y2="42.9868" gradientUnits="userSpaceOnUse">
<stop stop-color="#FFDA46"/>
<stop offset="1" stop-color="#FFC845"/>
</linearGradient>
</defs>
</svg>
